<svg xmlns="http://www.w3.org/2000/svg" viewBox="0 0 940 1260" font-family="Segoe UI, Arial, sans-serif" font-size="14">
  <defs>
    <marker id="arrow" viewBox="0 0 10 10" refX="9" refY="5" markerWidth="9" markerHeight="9" orient="auto-start-reverse">
      <path d="M0,0 L10,5 L0,10 z" fill="#5b6472"/>
    </marker>
  </defs>

  <rect x="0" y="0" width="940" height="1260" fill="#ffffff"/>
  <text x="470" y="26" text-anchor="middle" font-size="20" font-weight="700" fill="#111827">DER — Escola DB (Grupo 03)</text>

  <!-- ============ CONNECTORS (drawn first, under boxes) ============ -->
  <!-- turmas.id_curso -> cursos.id_curso -->
  <line x1="620" y1="320" x2="750" y2="176" stroke="#5b6472" stroke-width="1.5" marker-end="url(#arrow)"/>
  <text x="700" y="255" fill="#6b6375" font-size="12">N</text>
  <text x="745" y="195" fill="#6b6375" font-size="12">1</text>

  <!-- turmas.id_professor -> professores.id_professor -->
  <line x1="340" y1="346" x2="190" y2="176" stroke="#5b6472" stroke-width="1.5" marker-end="url(#arrow)"/>
  <text x="280" y="270" fill="#6b6375" font-size="12">N</text>
  <text x="185" y="195" fill="#6b6375" font-size="12">1</text>

  <!-- matriculas.id_aluno -> alunos.id_aluno -->
  <line x1="340" y1="846" x2="190" y2="722" stroke="#5b6472" stroke-width="1.5" marker-end="url(#arrow)"/>
  <text x="280" y="800" fill="#6b6375" font-size="12">N</text>
  <text x="185" y="742" fill="#6b6375" font-size="12">1</text>

  <!-- matriculas.id_turma -> turmas.id_turma -->
  <line x1="480" y1="800" x2="480" y2="514" stroke="#5b6472" stroke-width="1.5" marker-end="url(#arrow)"/>
  <text x="490" y="700" fill="#6b6375" font-size="12">N</text>
  <text x="490" y="530" fill="#6b6375" font-size="12">1</text>

  <!-- notas.id_matricula -> matriculas.id_matricula -->
  <line x1="480" y1="1040" x2="480" y2="962" stroke="#5b6472" stroke-width="1.5" marker-end="url(#arrow)"/>
  <text x="490" y="1010" fill="#6b6375" font-size="12">N</text>
  <text x="490" y="978" fill="#6b6375" font-size="12">1</text>

  <!-- ============ TABLE: professores ============ -->
  <g>
    <rect x="60" y="40" width="260" height="136" fill="#ffffff" stroke="#374151" stroke-width="1.5"/>
    <rect x="60" y="40" width="260" height="32" fill="#e8f0fe" stroke="#374151" stroke-width="1.5"/>
    <text x="190" y="61" text-anchor="middle" font-weight="700" fill="#111827">professores</text>
    <line x1="60" y1="72" x2="320" y2="72" stroke="#374151"/>
    <text x="76" y="90" font-weight="700" text-decoration="underline" fill="#111827">id_professor</text><text x="240" y="90" fill="#6b6375" font-size="12">PK</text>
    <text x="76" y="116" fill="#111827">nome</text>
    <text x="76" y="142" fill="#111827">email</text>
    <text x="76" y="168" fill="#111827">area</text>
  </g>

  <!-- ============ TABLE: cursos ============ -->
  <g>
    <rect x="620" y="40" width="260" height="136" fill="#ffffff" stroke="#374151" stroke-width="1.5"/>
    <rect x="620" y="40" width="260" height="32" fill="#e8f0fe" stroke="#374151" stroke-width="1.5"/>
    <text x="750" y="61" text-anchor="middle" font-weight="700" fill="#111827">cursos</text>
    <line x1="620" y1="72" x2="880" y2="72" stroke="#374151"/>
    <text x="636" y="90" font-weight="700" text-decoration="underline" fill="#111827">id_curso</text><text x="800" y="90" fill="#6b6375" font-size="12">PK</text>
    <text x="636" y="116" fill="#111827">nome</text>
    <text x="636" y="142" fill="#111827">carga_horaria</text>
    <text x="636" y="168" fill="#111827">area</text>
  </g>

  <!-- ============ TABLE: turmas ============ -->
  <g>
    <rect x="340" y="300" width="280" height="214" fill="#ffffff" stroke="#374151" stroke-width="1.5"/>
    <rect x="340" y="300" width="280" height="32" fill="#e8f0fe" stroke="#374151" stroke-width="1.5"/>
    <text x="480" y="321" text-anchor="middle" font-weight="700" fill="#111827">turmas</text>
    <line x1="340" y1="332" x2="620" y2="332" stroke="#374151"/>
    <text x="356" y="350" font-weight="700" text-decoration="underline" fill="#111827">id_turma</text><text x="580" y="350" fill="#6b6375" font-size="12">PK</text>
    <text x="356" y="376" fill="#111827">id_curso</text><text x="580" y="376" fill="#8a5a00" font-size="12">FK</text>
    <text x="356" y="402" fill="#111827">id_professor</text><text x="580" y="402" fill="#8a5a00" font-size="12">FK</text>
    <text x="356" y="428" fill="#111827">nome_turma</text>
    <text x="356" y="454" fill="#111827">turno</text>
    <text x="356" y="480" fill="#111827">periodo</text>
    <text x="356" y="506" fill="#111827">capacidade</text>
  </g>

  <!-- ============ TABLE: alunos ============ -->
  <g>
    <rect x="60" y="560" width="260" height="162" fill="#ffffff" stroke="#374151" stroke-width="1.5"/>
    <rect x="60" y="560" width="260" height="32" fill="#e8f0fe" stroke="#374151" stroke-width="1.5"/>
    <text x="190" y="581" text-anchor="middle" font-weight="700" fill="#111827">alunos</text>
    <line x1="60" y1="592" x2="320" y2="592" stroke="#374151"/>
    <text x="76" y="610" font-weight="700" text-decoration="underline" fill="#111827">id_aluno</text><text x="240" y="610" fill="#6b6375" font-size="12">PK</text>
    <text x="76" y="636" fill="#111827">nome</text>
    <text x="76" y="662" fill="#111827">email</text>
    <text x="76" y="688" fill="#111827">data_nascimento</text>
    <text x="76" y="714" fill="#111827">cidade</text>
  </g>

  <!-- ============ TABLE: matriculas ============ -->
  <g>
    <rect x="340" y="800" width="280" height="162" fill="#ffffff" stroke="#374151" stroke-width="1.5"/>
    <rect x="340" y="800" width="280" height="32" fill="#e8f0fe" stroke="#374151" stroke-width="1.5"/>
    <text x="480" y="821" text-anchor="middle" font-weight="700" fill="#111827">matriculas</text>
    <line x1="340" y1="832" x2="620" y2="832" stroke="#374151"/>
    <text x="356" y="850" font-weight="700" text-decoration="underline" fill="#111827">id_matricula</text><text x="580" y="850" fill="#6b6375" font-size="12">PK</text>
    <text x="356" y="876" fill="#111827">id_aluno</text><text x="580" y="876" fill="#8a5a00" font-size="12">FK</text>
    <text x="356" y="902" fill="#111827">id_turma</text><text x="580" y="902" fill="#8a5a00" font-size="12">FK</text>
    <text x="356" y="928" fill="#111827">data_matricula</text>
    <text x="356" y="954" fill="#111827">status</text>
  </g>

  <!-- ============ TABLE: notas ============ -->
  <g>
    <rect x="340" y="1040" width="280" height="188" fill="#ffffff" stroke="#374151" stroke-width="1.5"/>
    <rect x="340" y="1040" width="280" height="32" fill="#e8f0fe" stroke="#374151" stroke-width="1.5"/>
    <text x="480" y="1061" text-anchor="middle" font-weight="700" fill="#111827">notas</text>
    <line x1="340" y1="1072" x2="620" y2="1072" stroke="#374151"/>
    <text x="356" y="1090" font-weight="700" text-decoration="underline" fill="#111827">id_nota</text><text x="580" y="1090" fill="#6b6375" font-size="12">PK</text>
    <text x="356" y="1116" fill="#111827">id_matricula</text><text x="580" y="1116" fill="#8a5a00" font-size="12">FK</text>
    <text x="356" y="1142" fill="#111827">nota1</text>
    <text x="356" y="1168" fill="#111827">nota2</text>
    <text x="356" y="1194" fill="#111827">nota3</text>
    <text x="356" y="1220" fill="#111827">media</text>
  </g>
</svg>
